<svg xmlns="http://www.w3.org/2000/svg" width="16.928" height="19.346" viewBox="0 0 16.928 19.346">
  <path id="Path_2" data-name="Path 2" d="M10.255,2a1.209,1.209,0,0,0-1.081.669L8.3,4.418H4.209a1.209,1.209,0,1,0,0,2.418V18.928a2.418,2.418,0,0,0,2.418,2.418H16.3a2.418,2.418,0,0,0,2.418-2.418V6.837a1.209,1.209,0,0,0,0-2.418H14.63l-.875-1.75A1.209,1.209,0,0,0,12.673,2ZM7.837,9.255a1.209,1.209,0,0,1,2.418,0V16.51a1.209,1.209,0,1,1-2.418,0Zm6.046-1.209a1.209,1.209,0,0,0-1.209,1.209V16.51a1.209,1.209,0,1,0,2.418,0V9.255A1.209,1.209,0,0,0,13.882,8.046Z" transform="translate(-3 -2)" fill="rgba(223,25,45,0.65)" fill-rule="evenodd"/>
</svg>
